# xmcd
#
# Track frame offsets:
#	150
#	17670
#	28475
#	47460
#	62565
#	74640
#	88567
#	102122
#	114685
#	131997
#
# Disc length: 1971 seconds
#
# Revision: 5
# Processed by: cddbd v1.5.1PL0 Copyright (c) Steve Scherf et al.
# Submitted via: EasyCDDAExtractor 6.2.0.3
#
DISCID=8c07b10a
DTITLE=Mark Chesnutt - Longnecks and Short Stories
DYEAR=1992
DGENRE=Country
TTITLE0=Old Country
TTITLE1=Old Flames Have New Names
TTITLE2=I'll Think Of Something
TTITLE3=It's Not Over (If I'm Not Over You)
TTITLE4=Uptown Downtown (Misery's All The Same)
TTITLE5=Bubba Shot The Jukebox
TTITLE6=Postpone The Pain
TTITLE7=Talking To Hank
TTITLE8=I'm Not Getting Any Better At Goodbyes
TTITLE9=Who Will The Next Fool Be
EXTD=
EXTT0=
EXTT1=
EXTT2=
EXTT3=
EXTT4=
EXTT5=
EXTT6=
EXTT7=
EXTT8=
EXTT9=
PLAYORDER=
